<?xml version="1.0" encoding="UTF-8" standalone="no"?>
<!-- Created with Inkscape (http://www.inkscape.org/) -->

<svg
   xmlns:dc="http://purl.org/dc/elements/1.1/"
   xmlns:cc="http://creativecommons.org/ns#"
   xmlns:rdf="http://www.w3.org/1999/02/22-rdf-syntax-ns#"
   xmlns:svg="http://www.w3.org/2000/svg"
   xmlns="http://www.w3.org/2000/svg"
   xmlns:sodipodi="http://sodipodi.sourceforge.net/DTD/sodipodi-0.dtd"
   xmlns:inkscape="http://www.inkscape.org/namespaces/inkscape"
   width="27.124365mm"
   height="29.206137mm"
   viewBox="0 0 96.109954 103.48631"
   id="svg4566"
   version="1.1"
   inkscape:version="0.91 r13725"
   sodipodi:docname="logo_2015-01-29.svg">
  <defs
     id="defs4568" />
  <sodipodi:namedview
     id="base"
     pagecolor="#ffffff"
     bordercolor="#666666"
     borderopacity="1.0"
     inkscape:pageopacity="0.0"
     inkscape:pageshadow="2"
     inkscape:zoom="0.35"
     inkscape:cx="-84.087885"
     inkscape:cy="-182.54256"
     inkscape:document-units="px"
     inkscape:current-layer="layer1"
     showgrid="false"
     fit-margin-top="0"
     fit-margin-left="0"
     fit-margin-right="0"
     fit-margin-bottom="0"
     inkscape:window-width="924"
     inkscape:window-height="1011"
     inkscape:window-x="970"
     inkscape:window-y="43"
     inkscape:window-maximized="0" />
  <metadata
     id="metadata4571">
    <rdf:RDF>
      <cc:Work
         rdf:about="">
        <dc:format>image/svg+xml</dc:format>
        <dc:type
           rdf:resource="http://purl.org/dc/dcmitype/StillImage" />
        <dc:title></dc:title>
        <cc:license
           rdf:resource="http://creativecommons.org/licenses/by-nc-nd/3.0/" />
        <dc:creator>
          <cc:Agent>
            <dc:title>Stephan Fischer, tocsin.de</dc:title>
          </cc:Agent>
        </dc:creator>
      </cc:Work>
      <cc:License
         rdf:about="http://creativecommons.org/licenses/by-nc-nd/3.0/">
        <cc:permits
           rdf:resource="http://creativecommons.org/ns#Reproduction" />
        <cc:permits
           rdf:resource="http://creativecommons.org/ns#Distribution" />
        <cc:requires
           rdf:resource="http://creativecommons.org/ns#Notice" />
        <cc:requires
           rdf:resource="http://creativecommons.org/ns#Attribution" />
        <cc:prohibits
           rdf:resource="http://creativecommons.org/ns#CommercialUse" />
      </cc:License>
    </rdf:RDF>
  </metadata>
  <g
     inkscape:label="Ebene 1"
     inkscape:groupmode="layer"
     id="layer1"
     transform="translate(-409.08788,-246.33334)">
    <g
       style="fill:#f9f9f9"
       id="g4537"
       transform="matrix(1.830207,0,0,1.830207,310.01274,-208.25732)">
      <g
         id="text4490"
         style="font-style:normal;font-variant:normal;font-weight:bold;font-stretch:normal;font-size:91.46851349px;line-height:125%;font-family:'Ubuntu Mono derivative Powerline';-inkscape-font-specification:'Ubuntu Mono derivative Powerline Bold';letter-spacing:0px;word-spacing:0px;opacity:0.28800013;fill:#f9f9f9;fill-opacity:1;stroke:none;stroke-width:1px;stroke-linecap:butt;stroke-linejoin:miter;stroke-opacity:1">
        <path
           inkscape:connector-curvature="0"
           id="path4526"
           style="font-style:normal;font-variant:normal;font-weight:600;font-stretch:normal;font-family:'URW Gothic';-inkscape-font-specification:'URW Gothic Semi-Bold';fill:#f9f9f9"
           d="m 61.643947,300.24475 12.165312,0 0,-23.87328 c 0,-6.76867 0.457343,-9.69566 2.012307,-12.16531 1.920839,-3.01846 5.030769,-4.6649 8.963915,-4.6649 3.201398,0 5.671048,1.09762 7.317481,3.2014 1.646433,2.19524 2.378181,5.94545 2.378181,12.71412 l 0,24.78797 12.165317,0 0,-27.16615 c 0,-9.05538 -0.91469,-13.44587 -3.65875,-17.37902 -3.292862,-4.75636 -8.780972,-7.31748 -15.824048,-7.31748 -5.853985,0 -9.787131,1.64644 -14.269088,6.03693 l 0,-4.84784 -11.250627,0 0,50.67356 z" />
      </g>
      <g
         id="text4494"
         style="font-style:normal;font-variant:normal;font-weight:bold;font-stretch:normal;font-size:91.46851349px;line-height:125%;font-family:'Ubuntu Mono derivative Powerline';-inkscape-font-specification:'Ubuntu Mono derivative Powerline Bold';letter-spacing:0px;word-spacing:0px;opacity:0.49000005;fill:#f9f9f9;fill-opacity:1;stroke:none;stroke-width:1px;stroke-linecap:butt;stroke-linejoin:miter;stroke-opacity:1">
        <path
           inkscape:connector-curvature="0"
           id="path4529"
           style="font-style:normal;font-variant:normal;font-weight:600;font-stretch:normal;font-family:'URW Gothic';-inkscape-font-specification:'URW Gothic Semi-Bold';fill:#f9f9f9"
           d="m 55.750346,300.30856 12.165313,0 0,-23.87328 c 0,-6.76867 0.457342,-9.69566 2.012307,-12.16531 1.920839,-3.01846 5.030768,-4.6649 8.963914,-4.6649 3.201398,0 5.671048,1.09763 7.317481,3.2014 1.646434,2.19525 2.378182,5.94546 2.378182,12.71413 l 0,24.78796 12.165307,0 0,-27.16615 c 0,-9.05538 -0.91468,-13.44587 -3.658736,-17.37901 -3.292866,-4.75637 -8.780977,-7.31748 -15.824052,-7.31748 -5.853985,0 -9.787131,1.64643 -14.269089,6.03692 l 0,-4.84783 -11.250627,0 0,50.67355 z" />
      </g>
      <g
         transform="translate(-362.88889,-362.47991)"
         id="g4498"
         style="fill:#f9f9f9">
        <g
           id="text4500"
           style="font-style:normal;font-variant:normal;font-weight:bold;font-stretch:normal;font-size:91.46851349px;line-height:125%;font-family:'Ubuntu Mono derivative Powerline';-inkscape-font-specification:'Ubuntu Mono derivative Powerline Bold';letter-spacing:0px;word-spacing:0px;opacity:0.68999999;fill:#f9f9f9;fill-opacity:1;stroke:none;stroke-width:1px;stroke-linecap:butt;stroke-linejoin:miter;stroke-opacity:1">
          <path
             inkscape:connector-curvature="0"
             id="path4532"
             style="font-style:normal;font-variant:normal;font-weight:600;font-stretch:normal;font-family:'URW Gothic';-inkscape-font-specification:'URW Gothic Semi-Bold';fill:#f9f9f9"
             d="m 417.02219,667.27783 12.16531,0 0,-23.87328 c 0,-6.76867 0.45734,-9.69566 2.01231,-12.16531 1.92083,-3.01846 5.03076,-4.6649 8.96391,-4.6649 3.2014,0 5.67105,1.09763 7.31748,3.2014 1.64643,2.19525 2.37818,5.94545 2.37818,12.71412 l 0,24.78797 12.16531,0 0,-27.16615 c 0,-9.05538 -0.91468,-13.44587 -3.65874,-17.37901 -3.29286,-4.75637 -8.78097,-7.31749 -15.82405,-7.31749 -5.85398,0 -9.78713,1.64644 -14.26909,6.03693 l 0,-4.84783 -11.25062,0 0,50.67355 z" />
        </g>
      </g>
      <g
         id="text4504"
         style="font-style:normal;font-variant:normal;font-weight:bold;font-stretch:normal;font-size:91.46851349px;line-height:125%;font-family:'Ubuntu Mono derivative Powerline';-inkscape-font-specification:'Ubuntu Mono derivative Powerline Bold';letter-spacing:0px;word-spacing:0px;fill:#f9f9f9;fill-opacity:1;stroke:none;stroke-width:1px;stroke-linecap:butt;stroke-linejoin:miter;stroke-opacity:1">
        <path
           inkscape:connector-curvature="0"
           id="path4535"
           style="font-style:normal;font-variant:normal;font-weight:600;font-stretch:normal;font-family:'URW Gothic';-inkscape-font-specification:'URW Gothic Semi-Bold';fill:#f9f9f9"
           d="m 60.069453,304.9256 12.165313,0 0,-23.87328 c 0,-6.76867 0.457342,-9.69567 2.012307,-12.16532 1.920839,-3.01846 5.030768,-4.66489 8.963914,-4.66489 3.201398,0 5.671048,1.09762 7.317481,3.2014 1.646434,2.19524 2.378182,5.94545 2.378182,12.71412 l 0,24.78797 12.16531,0 0,-27.16615 c 0,-9.05538 -0.91468,-13.44587 -3.65874,-17.37902 -3.292865,-4.75636 -8.780976,-7.31748 -15.824051,-7.31748 -5.853985,0 -9.787131,1.64643 -14.269088,6.03692 l 0,-4.84783 -11.250628,0 0,50.67356 z" />
      </g>
    </g>
  </g>
</svg>
