<svg width="70.682mm" height="39.758mm" version="1.1" viewBox="0 0 70.682 39.758" xmlns="http://www.w3.org/2000/svg">
<g transform="translate(206.38 -29.393)">
<rect x="-207.11" y="28.733" width="73.09" height="41.235" fill="#333" style="paint-order:stroke markers fill"/>
<path d="m-169.12 40.995c0 1.0549-0.85512 1.91-1.91 1.91-1.0549 0-1.91-0.85511-1.91-1.91s0.85511-1.91 1.91-1.91c1.0549 0 1.91 0.85511 1.91 1.91zm-1.91 14.643c-1.0549 0-1.91 0.85511-1.91 1.91 0 1.0549 0.85511 1.91 1.91 1.91 1.0549 0 1.91-0.85511 1.91-1.91 0-1.0549-0.85512-1.91-1.91-1.91zm8.2766-8.2766c-1.0549 0-1.91 0.85511-1.91 1.91 0 1.0549 0.85512 1.91 1.91 1.91 1.0549 0 1.91-0.85511 1.91-1.91 0-1.0549-0.85511-1.91-1.91-1.91zm-14.643 1.91c0-1.0549-0.85511-1.91-1.91-1.91-1.0549 0-1.91 0.85511-1.91 1.91 0 1.0549 0.85511 1.91 1.91 1.91 1.0549 0 1.91-0.85511 1.91-1.91zm0.51418 3.9424c-1.0549 0-1.91 0.85511-1.91 1.91 0 1.0549 0.85511 1.91 1.91 1.91 1.0549 0 1.91-0.85511 1.91-1.91 0-1.0548-0.85515-1.91-1.91-1.91zm11.705 0c-1.0549 0-1.91 0.85511-1.91 1.91 0 1.0549 0.85511 1.91 1.91 1.91 1.0549 0 1.91-0.85511 1.91-1.91 0-1.0548-0.85511-1.91-1.91-1.91zm-11.705-11.705c-1.0549 0-1.91 0.85511-1.91 1.91 0 1.0549 0.85511 1.91 1.91 1.91 1.0549 0 1.91-0.85511 1.91-1.91 0-1.0549-0.85515-1.91-1.91-1.91z" fill="#b3b3b3" stroke-width=".039791"/>
</g>
</svg>
