<svg width="35.33" height="38.041" version="1.1" viewBox="0 0 9.3476 10.065" xmlns="http://www.w3.org/2000/svg">
 <g transform="translate(-39.695 -157.63)">
  <g transform="matrix(.17801 0 0 .17801 -90.232 -117.65)">
   <g transform="translate(675.77 1298.1)" fill="#f9f9f9">
    <g opacity=".288" stroke-width="1px" aria-label="n">
     <path d="m61.644 300.24h12.165v-23.873c0-6.7687 0.45734-9.6957 2.0123-12.165 1.9208-3.0185 5.0308-4.6649 8.9639-4.6649 3.2014 0 5.671 1.0976 7.3175 3.2014 1.6464 2.1952 2.3782 5.9454 2.3782 12.714v24.788h12.165v-27.166c0-9.0554-0.91469-13.446-3.6588-17.379-3.2929-4.7564-8.781-7.3175-15.824-7.3175-5.854 0-9.7871 1.6464-14.269 6.0369v-4.8478h-11.251z" fill="#f9f9f9"/>
    </g>
    <g opacity=".49" stroke-width="1px" aria-label="n">
     <path d="m55.75 300.31h12.165v-23.873c0-6.7687 0.45734-9.6957 2.0123-12.165 1.9208-3.0185 5.0308-4.6649 8.9639-4.6649 3.2014 0 5.671 1.0976 7.3175 3.2014 1.6464 2.1952 2.3782 5.9455 2.3782 12.714v24.788h12.165v-27.166c0-9.0554-0.91468-13.446-3.6587-17.379-3.2929-4.7564-8.781-7.3175-15.824-7.3175-5.854 0-9.7871 1.6464-14.269 6.0369v-4.8478h-11.251z" fill="#f9f9f9"/>
    </g>
    <g transform="translate(-362.89 -362.48)">
     <g fill="#f9f9f9" opacity=".69" stroke-width="1px" aria-label="n">
      <path d="m417.02 667.28h12.165v-23.873c0-6.7687 0.45734-9.6957 2.0123-12.165 1.9208-3.0185 5.0308-4.6649 8.9639-4.6649 3.2014 0 5.671 1.0976 7.3175 3.2014 1.6464 2.1952 2.3782 5.9454 2.3782 12.714v24.788h12.165v-27.166c0-9.0554-0.91468-13.446-3.6587-17.379-3.2929-4.7564-8.781-7.3175-15.824-7.3175-5.854 0-9.7871 1.6464-14.269 6.0369v-4.8478h-11.251z" fill="#f9f9f9"/>
     </g>
    </g>
    <g stroke-width="1px" aria-label="n">
     <path d="m60.069 304.93h12.165v-23.873c0-6.7687 0.45734-9.6957 2.0123-12.165 1.9208-3.0185 5.0308-4.6649 8.9639-4.6649 3.2014 0 5.671 1.0976 7.3175 3.2014 1.6464 2.1952 2.3782 5.9454 2.3782 12.714v24.788h12.165v-27.166c0-9.0554-0.91468-13.446-3.6587-17.379-3.2929-4.7564-8.781-7.3175-15.824-7.3175-5.854 0-9.7871 1.6464-14.269 6.0369v-4.8478h-11.251z" fill="#f9f9f9"/>
    </g>
   </g>
  </g>
 </g>
</svg>
