<svg width="85.587mm" height="20.521mm" version="1.1" viewBox="0 0 303.26 72.712" xmlns="http://www.w3.org/2000/svg"><g transform="translate(-197.45 -192.64)"><g transform="matrix(.98974 0 0 .98974 -525.48 -1321.9)"><g transform="translate(675.77 1298.1)" fill="#f9f9f9"><g transform="translate(.51031 -12.758)"><g transform="translate(0 12.247)" fill="#f9f9f9" stroke-width="1px"><g transform="translate(-2.9219e-7 -1.2796e-6)"><g fill="#f9f9f9"><g opacity=".288" stroke-width="1px"><path d="m61.644 300.24h12.165v-23.873c0-6.7687 0.45734-9.6957 2.0123-12.165 1.9208-3.0185 5.0308-4.6649 8.9639-4.6649 3.2014 0 5.671 1.0976 7.3175 3.2014 1.6464 2.1952 2.3782 5.9454 2.3782 12.714v24.788h12.165v-27.166c0-9.0554-0.91469-13.446-3.6588-17.379-3.2929-4.7564-8.781-7.3175-15.824-7.3175-5.854 0-9.7871 1.6464-14.269 6.0369v-4.8478h-11.251z"/><path d="m166.71 280.3c0.36587-1.7379 0.45734-2.927 0.45734-4.7564 0-15.641-11.068-27.166-26.16-27.166-14.909 0-26.709 11.799-26.709 26.709 0 14.818 11.982 26.343 27.441 26.343 8.3236 0 14.818-2.927 20.123-9.1468 1.9208-2.3782 3.2014-4.482 4.0246-7.0431h-13.263c-3.1099 3.6588-6.1284 5.0308-11.159 5.0308-7.226 0-12.531-3.8417-13.995-9.9701zm-39.606-10.702c1.9208-6.5857 6.8601-10.062 14.086-10.062 7.5004 0 12.44 3.5673 13.995 10.062z"/><path d="m189.17 300.24h7.5004l9.7871-32.837 9.6042 32.837h7.5919l18.294-50.674h-12.989l-9.2383 30.916-8.3236-30.916h-9.6957l-8.5066 30.916-9.0554-30.916h-13.08z"/><path d="m245.13 284.15c0.54881 4.9393 1.372 7.5919 3.3843 10.244 3.2929 4.3905 9.0554 7.0431 15.184 7.0431 10.153 0 18.111-7.5919 18.111-17.288 0-7.6834-3.8417-11.708-14.086-14.818-4.9393-1.555-4.9393-1.555-6.2199-2.1038-1.555-0.73175-2.3782-1.9208-2.3782-3.3843 0-2.4696 2.0123-4.299 4.6649-4.299 2.5611 0 4.2076 1.372 4.7564 4.0246h11.891c-0.18293-4.299-1.1891-6.8601-3.6587-9.6042-3.2014-3.5673-7.9578-5.5796-12.989-5.5796-9.5127 0-16.83 6.7687-16.83 15.458 0 7.409 3.9331 11.616 14.086 15.001 4.5734 1.555 5.0308 1.7379 6.3113 2.5611 1.4635 0.91468 2.2867 2.2867 2.2867 3.9331 0 2.8355-2.2867 4.9393-5.4881 4.9393-3.5673 0-5.5796-1.8294-6.7687-6.1284z"/><path d="m288.53 300.24h12.165v-50.674h-12.165zm0-56.162h12.165v-11.434h-12.165z"/><path d="m346.82 283.6c-3.0185 4.6649-6.4943 6.6772-11.525 6.6772-8.4151 0-14.726-6.5857-14.726-15.458 0-8.9639 5.9454-15.275 14.452-15.275 5.4881 0 9.3298 2.1952 11.799 6.9516h13.72c-1.7379-5.1222-3.3843-7.7748-6.8601-10.976-4.9393-4.5734-11.616-7.1346-18.66-7.1346-15.001 0-26.709 11.617-26.709 26.526 0 14.726 12.074 26.526 27.075 26.526 11.891 0 20.946-6.4943 25.154-17.836z"/></g><g opacity=".49" stroke-width="1px"><path d="m55.75 300.31h12.165v-23.873c0-6.7687 0.45734-9.6957 2.0123-12.165 1.9208-3.0185 5.0308-4.6649 8.9639-4.6649 3.2014 0 5.671 1.0976 7.3175 3.2014 1.6464 2.1952 2.3782 5.9455 2.3782 12.714v24.788h12.165v-27.166c0-9.0554-0.91468-13.446-3.6587-17.379-3.2929-4.7564-8.781-7.3175-15.824-7.3175-5.854 0-9.7871 1.6464-14.269 6.0369v-4.8478h-11.251z"/><path d="m160.81 280.37c0.36587-1.7379 0.45734-2.927 0.45734-4.7564 0-15.641-11.068-27.166-26.16-27.166-14.909 0-26.709 11.799-26.709 26.709 0 14.818 11.982 26.343 27.441 26.343 8.3236 0 14.818-2.927 20.123-9.1468 1.9208-2.3782 3.2014-4.482 4.0246-7.0431h-13.263c-3.1099 3.6587-6.1284 5.0308-11.159 5.0308-7.226 0-12.531-3.8417-13.995-9.9701zm-39.606-10.702c1.9208-6.5857 6.8601-10.062 14.086-10.062 7.5004 0 12.44 3.5673 13.995 10.062z"/><path d="m183.28 300.31h7.5004l9.7871-32.837 9.6042 32.837h7.5919l18.294-50.674h-12.989l-9.2383 30.916-8.3236-30.916h-9.6957l-8.5066 30.916-9.0554-30.916h-13.08z"/><path d="m239.24 284.21c0.54881 4.9393 1.372 7.5919 3.3843 10.244 3.2929 4.3905 9.0554 7.0431 15.184 7.0431 10.153 0 18.111-7.5919 18.111-17.288 0-7.6834-3.8417-11.708-14.086-14.818-4.9393-1.555-4.9393-1.555-6.2199-2.1038-1.555-0.73175-2.3782-1.9208-2.3782-3.3843 0-2.4696 2.0123-4.299 4.6649-4.299 2.5611 0 4.2076 1.372 4.7564 4.0246h11.891c-0.18293-4.299-1.1891-6.8601-3.6587-9.6042-3.2014-3.5673-7.9578-5.5796-12.989-5.5796-9.5127 0-16.83 6.7687-16.83 15.458 0 7.409 3.9331 11.617 14.086 15.001 4.5734 1.555 5.0308 1.7379 6.3113 2.5611 1.4635 0.91468 2.2867 2.2867 2.2867 3.9332 0 2.8355-2.2867 4.9393-5.4881 4.9393-3.5673 0-5.5796-1.8294-6.7687-6.1284z"/><path d="m282.64 300.31h12.165v-50.674h-12.165zm0-56.162h12.165v-11.434h-12.165z"/><path d="m340.92 283.66c-3.0185 4.6649-6.4943 6.6772-11.525 6.6772-8.4151 0-14.726-6.5857-14.726-15.458 0-8.9639 5.9454-15.275 14.452-15.275 5.4881 0 9.3298 2.1952 11.799 6.9516h13.72c-1.7379-5.1222-3.3843-7.7748-6.8601-10.976-4.9393-4.5734-11.616-7.1345-18.66-7.1345-15.001 0-26.709 11.616-26.709 26.526 0 14.726 12.074 26.526 27.075 26.526 11.891 0 20.946-6.4943 25.154-17.836z"/></g><g transform="translate(-362.89 -362.48)"><g fill="#f9f9f9" opacity=".69" stroke-width="1px"><path d="m417.02 667.28h12.165v-23.873c0-6.7687 0.45734-9.6957 2.0123-12.165 1.9208-3.0185 5.0308-4.6649 8.9639-4.6649 3.2014 0 5.671 1.0976 7.3175 3.2014 1.6464 2.1952 2.3782 5.9454 2.3782 12.714v24.788h12.165v-27.166c0-9.0554-0.91468-13.446-3.6587-17.379-3.2929-4.7564-8.781-7.3175-15.824-7.3175-5.854 0-9.7871 1.6464-14.269 6.0369v-4.8478h-11.251z"/><path d="m522.08 647.34c0.36587-1.7379 0.45734-2.927 0.45734-4.7564 0-15.641-11.068-27.166-26.16-27.166-14.909 0-26.709 11.799-26.709 26.709 0 14.818 11.982 26.343 27.441 26.343 8.3236 0 14.818-2.927 20.123-9.1468 1.9208-2.3782 3.2014-4.482 4.0246-7.0431h-13.263c-3.1099 3.6587-6.1284 5.0308-11.159 5.0308-7.226 0-12.531-3.8417-13.995-9.9701zm-39.606-10.702c1.9208-6.5857 6.8601-10.062 14.086-10.062 7.5004 0 12.44 3.5673 13.995 10.062z"/><path d="m544.55 667.28h7.5004l9.7871-32.837 9.6042 32.837h7.5919l18.294-50.674h-12.989l-9.2383 30.916-8.3236-30.916h-9.6957l-8.5066 30.916-9.0554-30.916h-13.08z"/><path d="m600.51 651.18c0.54881 4.9393 1.372 7.5919 3.3843 10.244 3.2929 4.3905 9.0554 7.0431 15.184 7.0431 10.153 0 18.111-7.5919 18.111-17.288 0-7.6834-3.8417-11.708-14.086-14.818-4.9393-1.555-4.9393-1.555-6.2199-2.1038-1.555-0.73175-2.3782-1.9208-2.3782-3.3843 0-2.4696 2.0123-4.299 4.6649-4.299 2.5611 0 4.2076 1.372 4.7564 4.0246h11.891c-0.18293-4.299-1.1891-6.8601-3.6587-9.6042-3.2014-3.5673-7.9578-5.5796-12.989-5.5796-9.5127 0-16.83 6.7687-16.83 15.458 0 7.409 3.9331 11.616 14.086 15.001 4.5734 1.555 5.0308 1.7379 6.3113 2.5611 1.4635 0.91468 2.2867 2.2867 2.2867 3.9331 0 2.8355-2.2867 4.9393-5.4881 4.9393-3.5673 0-5.5796-1.8294-6.7687-6.1284z"/><path d="m643.91 667.28h12.165v-50.674h-12.165zm0-56.162h12.165v-11.434h-12.165z"/><path d="m702.19 650.63c-3.0185 4.6649-6.4943 6.6772-11.525 6.6772-8.4151 0-14.726-6.5857-14.726-15.458 0-8.9639 5.9454-15.275 14.452-15.275 5.4881 0 9.3298 2.1952 11.799 6.9516h13.72c-1.7379-5.1222-3.3843-7.7748-6.8601-10.976-4.9393-4.5734-11.616-7.1346-18.66-7.1346-15.001 0-26.709 11.617-26.709 26.526 0 14.726 12.074 26.526 27.075 26.526 11.891 0 20.946-6.4943 25.154-17.836z"/></g></g></g></g><path d="m60.069 304.93h12.165v-23.873c0-6.7687 0.45734-9.6957 2.0123-12.165 1.9208-3.0185 5.0308-4.6649 8.9639-4.6649 3.2014 0 5.671 1.0976 7.3175 3.2014 1.6464 2.1952 2.3782 5.9454 2.3782 12.714v24.788h12.165v-27.166c0-9.0554-0.91468-13.446-3.6587-17.379-3.2929-4.7564-8.781-7.3175-15.824-7.3175-5.854 0-9.7871 1.6464-14.269 6.0369v-4.8478h-11.251z"/><path d="m165.13 284.99c0.36587-1.7379 0.45734-2.927 0.45734-4.7564 0-15.641-11.068-27.166-26.16-27.166-14.909 0-26.709 11.799-26.709 26.709 0 14.818 11.982 26.343 27.441 26.343 8.3236 0 14.818-2.927 20.123-9.1468 1.9208-2.3782 3.2014-4.482 4.0246-7.0431h-13.263c-3.1099 3.6587-6.1284 5.0308-11.159 5.0308-7.226 0-12.531-3.8417-13.995-9.9701zm-39.606-10.702c1.9208-6.5857 6.8601-10.062 14.086-10.062 7.5004 0 12.44 3.5673 13.995 10.062z"/><path d="m187.6 304.93h7.5004l9.7871-32.837 9.6042 32.837h7.5919l18.294-50.674h-12.989l-9.2383 30.916-8.3236-30.916h-9.6957l-8.5066 30.916-9.0554-30.916h-13.08z"/><path d="m243.56 288.83c0.54881 4.9393 1.372 7.5919 3.3843 10.244 3.2929 4.3905 9.0554 7.0431 15.184 7.0431 10.153 0 18.111-7.5919 18.111-17.288 0-7.6834-3.8417-11.708-14.086-14.818-4.9393-1.555-4.9393-1.555-6.2199-2.1038-1.555-0.73174-2.3782-1.9208-2.3782-3.3843 0-2.4696 2.0123-4.299 4.6649-4.299 2.5611 0 4.2076 1.372 4.7564 4.0246h11.891c-0.18294-4.299-1.1891-6.8601-3.6587-9.6042-3.2014-3.5673-7.9578-5.5796-12.989-5.5796-9.5127 0-16.83 6.7687-16.83 15.458 0 7.409 3.9331 11.616 14.086 15.001 4.5734 1.555 5.0308 1.7379 6.3113 2.5611 1.4635 0.91469 2.2867 2.2867 2.2867 3.9332 0 2.8355-2.2867 4.9393-5.4881 4.9393-3.5673 0-5.5796-1.8294-6.7687-6.1284z"/><path d="m286.95 304.93h12.165v-50.674h-12.165zm0-56.162h12.165v-11.434h-12.165z"/><path d="m345.24 288.28c-3.0185 4.6649-6.4943 6.6772-11.525 6.6772-8.4151 0-14.726-6.5857-14.726-15.458 0-8.9639 5.9455-15.275 14.452-15.275 5.4881 0 9.3298 2.1952 11.799 6.9516h13.72c-1.7379-5.1222-3.3843-7.7748-6.8601-10.976-4.9393-4.5734-11.616-7.1346-18.66-7.1346-15.001 0-26.709 11.616-26.709 26.526 0 14.726 12.074 26.526 27.075 26.526 11.891 0 20.946-6.4943 25.154-17.836z"/></g></g></g></g></g></svg>
